<?xml version='1.0' encoding='ASCII'?>
<svg version="1.1" xmlns="http://www.w3.org/2000/svg" width="211.88142646" height="211.88142646">
  <path d="M177.696072278 108.394482564 L 184.202685677 108.616984808 L 184.229905329 108.618395304 L 184.311441895 108.624540539 L 184.447026663 108.638284618 L 184.636277697 108.662479768 L 184.878700305 108.699962356 L 185.17368764 108.753548934 L 185.520521421 108.826032296 L 185.918372793 108.920177565 L 186.366303314 109.038718306 L 186.863266068 109.184352679 L 187.408106903 109.359739623 L 187.999565801 109.567495082 L 188.636278366 109.810188282 L 189.316777437 110.090338048 L 190.03949482 110.410409184 L 190.802763148 110.772808907 L 191.604817845 111.179883334 L 192.443799217 111.633914047 L 193.317754649 112.137114715 L 194.224640921 112.691627795" stroke="blue" stroke-width="0.5" fill="gray"/>
  <path d="M177.696072278 103.486943896 L 184.202685677 103.264441651 L 184.229905329 103.263031156 L 184.311441895 103.256885921 L 184.447026663 103.243141842 L 184.636277697 103.218946692 L 184.878700305 103.181464104 L 185.17368764 103.127877525 L 185.520521421 103.055394163 L 185.918372793 102.961248895 L 186.366303314 102.842708154 L 186.863266068 102.697073781 L 187.408106903 102.521686837 L 187.999565801 102.313931377 L 188.636278366 102.071238178 L 189.316777437 101.791088412 L 190.03949482 101.471017275 L 190.802763148 101.108617553 L 191.604817845 100.701543126 L 192.443799217 100.247512413 L 193.317754649 99.7443117444 L 194.224640921 99.1897986649" stroke="blue" stroke-width="0.5" fill="gray"/>
  <path d="M177.696072278 108.394482564 A 71.7973017322 71.7973017322, 0, 0, 0, 177.696072278 103.486943896" stroke="blue" stroke-width="0.5" fill="gray"/>
  <path d="M194.224640921 99.1897986649 A 88.5416666667 88.5416666667, 0, 0, 0, 193.845328102 95.3385709823" stroke="blue" stroke-width="0.5" fill="gray"/>
  <path d="M175.838606524 122.346110177 L 182.176789137 123.833714407 L 182.203210597 123.840408091 L 182.281981586 123.862342241 L 182.412279793 123.902273508 L 182.593174182 123.9629248 L 182.823626218 124.046981476 L 183.102491231 124.157087577 L 183.428519895 124.295842106 L 183.800359834 124.465795351 L 184.216557344 124.669445275 L 184.675559241 124.909233948 L 185.175714817 125.187544055 L 185.715277919 125.506695458 L 186.292409136 125.868941835 L 186.9051781 126.276467385 L 187.551565891 126.731383612 L 188.229467553 127.235726189 L 188.936694713 127.791451904 L 189.670978295 128.40043569 L 190.429971338 129.064467745 L 191.21125191 129.785250747" stroke="blue" stroke-width="0.5" fill="gray"/>
  <path d="M176.796019824 117.532868488 L 183.221018505 118.584018866 L 183.247990313 118.587945763 L 183.329159053 118.597825602 L 183.464819935 118.610796888 L 183.655154802 118.623987686 L 183.900231819 118.63451962 L 184.200005277 118.639511867 L 184.554315547 118.636085166 L 184.962889147 118.621365825 L 185.42533896 118.592489721 L 185.94116457 118.546606295 L 186.509752737 118.480882536 L 187.130377998 118.392506946 L 187.802203404 118.278693488 L 188.524281384 118.136685504 L 189.295554737 117.963759611 L 190.114857756 117.757229562 L 190.980917478 117.514450065 L 191.892355056 117.232820571 L 192.84768726 116.909789009 L 193.845328102 116.542855477" stroke="blue" stroke-width="0.5" fill="gray"/>
  <path d="M176.796019824 94.3485579713 A 71.7973017322 71.7973017322, 0, 0, 0, 175.838606524 89.5353162824" stroke="blue" stroke-width="0.5" fill="gray"/>
  <path d="M191.21125191 82.0961757131 A 88.5416666667 88.5416666667, 0, 0, 0, 190.087890231 78.3929485505" stroke="blue" stroke-width="0.5" fill="gray"/>
  <path d="M171.295003931 135.667287586 L 177.221182954 138.362826004 L 177.24579086 138.374545642 L 177.318769146 138.411425792 L 177.438773506 138.47600971 L 177.604359579 138.570786348 L 177.8139849 138.698186861 L 178.066010965 138.860581169 L 178.358705415 139.060274606 L 178.69024432 139.299504621 L 179.058714583 139.580437574 L 179.462116437 139.905165603 L 179.898366056 140.275703572 L 180.365298254 140.69398611 L 180.860669294 141.161864739 L 181.382159783 141.681105094 L 181.927377661 142.253384236 L 182.493861277 142.880288065 L 183.079082557 143.563308841 L 183.680450242 144.303842795 L 184.29531322 145.103187858 L 184.920963916 145.962541494" stroke="blue" stroke-width="0.5" fill="gray"/>
  <path d="M173.173037673 131.133313056 L 179.269512541 133.417720935 L 179.295199994 133.426834317 L 179.372881638 133.452359553 L 179.503405262 133.491547724 L 179.687509501 133.541617555 L 179.925822753 133.599759275 L 180.21886221 133.663138498 L 180.567033022 133.728900145 L 180.970627596 133.794172387 L 181.429825015 133.856070612 L 181.944690593 133.911701408 L 182.515175567 133.958166561 L 183.14111691 133.992567066 L 183.822237283 134.012007136 L 184.55814512 134.013598221 L 185.34833484 133.994463018 L 186.192187196 133.951739475 L 187.088969753 133.882584788 L 188.037837502 133.784179376 L 189.037833597 133.653730842 L 190.087890231 133.488477909" stroke="blue" stroke-width="0.5" fill="gray"/>
  <path d="M173.173037673 80.7481134042 A 71.7973017322 71.7973017322, 0, 0, 0, 171.295003931 76.2141388736" stroke="blue" stroke-width="0.5" fill="gray"/>
  <path d="M184.920963916 65.9188849658 A 88.5416666667 88.5416666667, 0, 0, 0, 183.096723538 62.5059712664" stroke="blue" stroke-width="0.5" fill="gray"/>
  <path d="M164.239872597 147.846089413 L 169.526308294 151.64597399 L 169.548156978 151.662269203 L 169.612538046 151.712678068 L 169.717636859 151.799432714 L 169.861551237 151.924692486 L 170.04229406 152.090540905 L 170.257795957 152.298982699 L 170.505908107 152.551940936 L 170.784405125 152.851254245 L 171.090988034 153.198674133 L 171.42328734 153.595862402 L 171.778866173 154.044388666 L 172.155223525 154.545727975 L 172.549797557 155.101258543 L 172.959968984 155.712259588 L 173.383064531 156.379909277 L 173.816360454 157.105282797 L 174.257086127 157.889350528 L 174.702427694 158.732976345 L 175.149531766 159.636916032 L 175.595509182 160.601815825" stroke="blue" stroke-width="0.5" fill="gray"/>
  <path d="M166.966354999 143.76562014 L 172.500021943 147.195497007 L 172.523437886 147.209446651 L 172.594647173 147.249636365 L 172.715017588 147.313535441 L 172.885816177 147.39856015 L 173.10820742 147.502077302 L 173.383251532 147.621407873 L 173.71190288 147.753830684 L 174.095008514 147.896586134 L 174.533306838 148.046879974 L 175.027426389 148.201887131 L 175.577884752 148.358755567 L 176.185087602 148.514610174 L 176.849327869 148.666556701 L 177.570785038 148.811685711 L 178.349524577 148.947076552 L 179.185497496 149.069801358 L 180.078540038 149.176929057 L 181.028373503 149.265529392 L 182.0346042 149.332676951 L 183.096723538 149.375455193" stroke="blue" stroke-width="0.5" fill="gray"/>
  <path d="M166.966354999 68.1158063202 A 71.7973017322 71.7973017322, 0, 0, 0, 164.239872597 64.0353370464" stroke="blue" stroke-width="0.5" fill="gray"/>
  <path d="M175.595509182 51.2796106343 A 88.5416666667 88.5416666667, 0, 0, 0, 173.140494638 48.2881667575" stroke="blue" stroke-width="0.5" fill="gray"/>
  <path d="M154.944337263 158.414491135 L 159.387874875 163.172694437 L 159.406124704 163.192939009 L 159.459434426 163.254939405 L 159.545588803 163.360530846 L 159.662300938 163.511460089 L 159.807215416 163.709382952 L 159.977911528 163.95586193 L 160.171906569 164.252363925 L 160.386659215 164.600258086 L 160.619572962 165.000813756 L 160.867999642 165.455198543 L 161.129242994 165.964476489 L 161.400562298 166.529606381 L 161.679176063 167.15144016 L 161.962265771 167.830721467 L 162.246979663 168.568084301 L 162.530436572 169.364051813 L 162.809729799 170.219035216 L 163.08193102 171.133332829 L 163.344094228 172.107129247 L 163.593259702 173.140494638" stroke="blue" stroke-width="0.5" fill="gray"/>
  <path d="M158.414491135 154.944337263 L 163.172694437 159.387874875 L 163.192939009 159.406124704 L 163.254939405 159.459434426 L 163.360530846 159.545588803 L 163.511460089 159.662300938 L 163.709382952 159.807215416 L 163.95586193 159.977911528 L 164.252363925 160.171906569 L 164.600258086 160.386659215 L 165.000813756 160.619572962 L 165.455198543 160.867999642 L 165.964476489 161.129242994 L 166.529606381 161.400562298 L 167.15144016 161.679176063 L 167.830721467 161.962265771 L 168.568084301 162.246979663 L 169.364051813 162.530436572 L 170.219035216 162.809729799 L 171.133332829 163.08193102 L 172.107129247 163.344094228 L 173.140494638 163.593259702" stroke="blue" stroke-width="0.5" fill="gray"/>
  <path d="M158.414491135 56.9370891963 A 71.7973017322 71.7973017322, 0, 0, 0, 154.944337263 53.4669353251" stroke="blue" stroke-width="0.5" fill="gray"/>
  <path d="M163.593259702 38.7409318213 A 88.5416666667 88.5416666667, 0, 0, 0, 160.601815825 36.2859172776" stroke="blue" stroke-width="0.5" fill="gray"/>
  <path d="M143.76562014 166.966354999 L 147.195497007 172.500021943 L 147.209446651 172.523437886 L 147.249636365 172.594647173 L 147.313535441 172.715017588 L 147.39856015 172.885816177 L 147.502077302 173.10820742 L 147.621407873 173.383251532 L 147.753830684 173.71190288 L 147.896586134 174.095008514 L 148.046879974 174.533306838 L 148.201887131 175.027426389 L 148.358755567 175.577884752 L 148.514610174 176.185087602 L 148.666556701 176.849327869 L 148.811685711 177.570785038 L 148.947076552 178.349524577 L 149.069801358 179.185497496 L 149.176929057 180.078540038 L 149.265529392 181.028373503 L 149.332676951 182.0346042 L 149.375455193 183.096723538" stroke="blue" stroke-width="0.5" fill="gray"/>
  <path d="M147.846089413 164.239872597 L 151.64597399 169.526308294 L 151.662269203 169.548156978 L 151.712678068 169.612538046 L 151.799432714 169.717636859 L 151.924692486 169.861551237 L 152.090540905 170.04229406 L 152.298982699 170.257795957 L 152.551940936 170.505908107 L 152.851254245 170.784405125 L 153.198674133 171.090988034 L 153.595862402 171.42328734 L 154.044388666 171.778866173 L 154.545727975 172.155223525 L 155.101258543 172.549797557 L 155.712259588 172.959968984 L 156.379909277 173.383064531 L 157.105282797 173.816360454 L 157.889350528 174.257086127 L 158.732976345 174.702427694 L 159.636916032 175.149531766 L 160.601815825 175.595509182" stroke="blue" stroke-width="0.5" fill="gray"/>
  <path d="M147.846089413 47.6415538625 A 71.7973017322 71.7973017322, 0, 0, 0, 143.76562014 44.9150714611" stroke="blue" stroke-width="0.5" fill="gray"/>
  <path d="M149.375455193 28.7847029216 A 88.5416666667 88.5416666667, 0, 0, 0, 145.962541494 26.9604625433" stroke="blue" stroke-width="0.5" fill="gray"/>
  <path d="M131.133313056 173.173037673 L 133.417720935 179.269512541 L 133.426834317 179.295199994 L 133.452359553 179.372881638 L 133.491547724 179.503405262 L 133.541617555 179.687509501 L 133.599759275 179.925822753 L 133.663138498 180.21886221 L 133.728900145 180.567033022 L 133.794172387 180.970627596 L 133.856070612 181.429825015 L 133.911701408 181.944690593 L 133.958166561 182.515175567 L 133.992567066 183.14111691 L 134.012007136 183.822237283 L 134.013598221 184.55814512 L 133.994463018 185.34833484 L 133.951739475 186.192187196 L 133.882584788 187.088969753 L 133.784179376 188.037837502 L 133.653730842 189.037833597 L 133.488477909 190.087890231" stroke="blue" stroke-width="0.5" fill="gray"/>
  <path d="M135.667287586 171.295003931 L 138.362826004 177.221182954 L 138.374545642 177.24579086 L 138.411425792 177.318769146 L 138.47600971 177.438773506 L 138.570786348 177.604359579 L 138.698186861 177.8139849 L 138.860581169 178.066010965 L 139.060274606 178.358705415 L 139.299504621 178.69024432 L 139.580437574 179.058714583 L 139.905165603 179.462116437 L 140.275703572 179.898366056 L 140.69398611 180.365298254 L 141.161864739 180.860669294 L 141.681105094 181.382159783 L 142.253384236 181.927377661 L 142.880288065 182.493861277 L 143.563308841 183.079082557 L 144.303842795 183.680450242 L 145.103187858 184.29531322 L 145.962541494 184.920963916" stroke="blue" stroke-width="0.5" fill="gray"/>
  <path d="M135.667287586 40.5864225286 A 71.7973017322 71.7973017322, 0, 0, 0, 131.133313056 38.7083887866" stroke="blue" stroke-width="0.5" fill="gray"/>
  <path d="M133.488477909 21.7935362286 A 88.5416666667 88.5416666667, 0, 0, 0, 129.785250747 20.6701745502" stroke="blue" stroke-width="0.5" fill="gray"/>
  <path d="M117.532868488 176.796019824 L 118.584018866 183.221018505 L 118.587945763 183.247990313 L 118.597825602 183.329159053 L 118.610796888 183.464819935 L 118.623987686 183.655154802 L 118.63451962 183.900231819 L 118.639511867 184.200005277 L 118.636085166 184.554315547 L 118.621365825 184.962889147 L 118.592489721 185.42533896 L 118.546606295 185.94116457 L 118.480882536 186.509752737 L 118.392506946 187.130377998 L 118.278693488 187.802203404 L 118.136685504 188.524281384 L 117.963759611 189.295554737 L 117.757229562 190.114857756 L 117.514450065 190.980917478 L 117.232820571 191.892355056 L 116.909789009 192.84768726 L 116.542855477 193.845328102" stroke="blue" stroke-width="0.5" fill="gray"/>
  <path d="M122.346110177 175.838606524 L 123.833714407 182.176789137 L 123.840408091 182.203210597 L 123.862342241 182.281981586 L 123.902273508 182.412279793 L 123.9629248 182.593174182 L 124.046981476 182.823626218 L 124.157087577 183.102491231 L 124.295842106 183.428519895 L 124.465795351 183.800359834 L 124.669445275 184.216557344 L 124.909233948 184.675559241 L 125.187544055 185.175714817 L 125.506695458 185.715277919 L 125.868941835 186.292409136 L 126.276467385 186.9051781 L 126.731383612 187.551565891 L 127.235726189 188.229467553 L 127.791451904 188.936694713 L 128.40043569 189.670978295 L 129.064467745 190.429971338 L 129.785250747 191.21125191" stroke="blue" stroke-width="0.5" fill="gray"/>
  <path d="M122.346110177 36.0428199353 A 71.7973017322 71.7973017322, 0, 0, 0, 117.532868488 35.0854066362" stroke="blue" stroke-width="0.5" fill="gray"/>
  <path d="M116.542855477 18.0360983574 A 88.5416666667 88.5416666667, 0, 0, 0, 112.691627795 17.6567855383" stroke="blue" stroke-width="0.5" fill="gray"/>
  <path d="M103.486943896 177.696072278 L 103.264441651 184.202685677 L 103.263031156 184.229905329 L 103.256885921 184.311441895 L 103.243141842 184.447026663 L 103.218946692 184.636277697 L 103.181464104 184.878700305 L 103.127877525 185.17368764 L 103.055394163 185.520521421 L 102.961248895 185.918372793 L 102.842708154 186.366303314 L 102.697073781 186.863266068 L 102.521686837 187.408106903 L 102.313931377 187.999565801 L 102.071238178 188.636278366 L 101.791088412 189.316777437 L 101.471017275 190.03949482 L 101.108617553 190.802763148 L 100.701543126 191.604817845 L 100.247512413 192.443799217 L 99.7443117444 193.317754649 L 99.1897986649 194.224640921" stroke="blue" stroke-width="0.5" fill="gray"/>
  <path d="M108.394482564 177.696072278 L 108.616984808 184.202685677 L 108.618395304 184.229905329 L 108.624540539 184.311441895 L 108.638284618 184.447026663 L 108.662479768 184.636277697 L 108.699962356 184.878700305 L 108.753548934 185.17368764 L 108.826032296 185.520521421 L 108.920177565 185.918372793 L 109.038718306 186.366303314 L 109.184352679 186.863266068 L 109.359739623 187.408106903 L 109.567495082 187.999565801 L 109.810188282 188.636278366 L 110.090338048 189.316777437 L 110.410409184 190.03949482 L 110.772808907 190.802763148 L 111.179883334 191.604817845 L 111.633914047 192.443799217 L 112.137114715 193.317754649 L 112.691627795 194.224640921" stroke="blue" stroke-width="0.5" fill="gray"/>
  <path d="M108.394482564 34.1853541821 A 71.7973017322 71.7973017322, 0, 0, 0, 103.486943896 34.1853541821" stroke="blue" stroke-width="0.5" fill="gray"/>
  <path d="M99.1897986649 17.6567855383 A 88.5416666667 88.5416666667, 0, 0, 0, 95.3385709823 18.0360983574" stroke="blue" stroke-width="0.5" fill="gray"/>
  <path d="M89.5353162824 175.838606524 L 88.0477120531 182.176789137 L 88.0410183691 182.203210597 L 88.0190842183 182.281981586 L 87.9791529516 182.412279793 L 87.9185016599 182.593174182 L 87.834444984 182.823626218 L 87.7243388826 183.102491231 L 87.5855843542 183.428519895 L 87.4156311086 183.800359834 L 87.2119811851 184.216557344 L 86.9721925118 184.675559241 L 86.6938824048 185.175714817 L 86.3747310014 185.715277919 L 86.0124846245 186.292409136 L 85.604959075 186.9051781 L 85.1500428482 187.551565891 L 84.6457002707 188.229467553 L 84.0899745554 188.936694713 L 83.4809907694 189.670978295 L 82.8169587142 190.429971338 L 82.0961757131 191.21125191" stroke="blue" stroke-width="0.5" fill="gray"/>
  <path d="M94.3485579713 176.796019824 L 93.2974075941 183.221018505 L 93.2934806967 183.247990313 L 93.2836008575 183.329159053 L 93.2706295721 183.464819935 L 93.2574387736 183.655154802 L 93.24690684 183.900231819 L 93.2419145931 184.200005277 L 93.2453412937 184.554315547 L 93.2600606347 184.962889147 L 93.288936739 185.42533896 L 93.334820165 185.94116457 L 93.400543924 186.509752737 L 93.4889195135 187.130377998 L 93.6027329717 187.802203404 L 93.7447409557 188.524281384 L 93.9176668483 189.295554737 L 94.1241968979 190.114857756 L 94.366976395 190.980917478 L 94.6486058892 191.892355056 L 94.971637451 192.84768726 L 95.3385709823 193.845328102" stroke="blue" stroke-width="0.5" fill="gray"/>
  <path d="M94.3485579713 35.0854066362 A 71.7973017322 71.7973017322, 0, 0, 0, 89.5353162824 36.0428199353" stroke="blue" stroke-width="0.5" fill="gray"/>
  <path d="M82.0961757131 20.6701745502 A 88.5416666667 88.5416666667, 0, 0, 0, 78.3929485505 21.7935362286" stroke="blue" stroke-width="0.5" fill="gray"/>
  <path d="M76.2141388736 171.295003931 L 73.5186004555 177.221182954 L 73.5068808177 177.24579086 L 73.4700006678 177.318769146 L 73.40541675 177.438773506 L 73.3106401113 177.604359579 L 73.183239599 177.8139849 L 73.0208452902 178.066010965 L 72.8211518541 178.358705415 L 72.5819218391 178.69024432 L 72.3009888854 179.058714583 L 71.9762608563 179.462116437 L 71.6057228876 179.898366056 L 71.1874403496 180.365298254 L 70.7195617203 180.860669294 L 70.2003213655 181.382159783 L 69.6280422242 181.927377661 L 69.0011383943 182.493861277 L 68.3181176184 183.079082557 L 67.5775836647 183.680450242 L 66.7782386021 184.29531322 L 65.9188849658 184.920963916" stroke="blue" stroke-width="0.5" fill="gray"/>
  <path d="M80.7481134042 173.173037673 L 78.463705525 179.269512541 L 78.4545921432 179.295199994 L 78.4290669066 179.372881638 L 78.3898787358 179.503405262 L 78.3398089042 179.687509501 L 78.2816671846 179.925822753 L 78.2182879618 180.21886221 L 78.1525263148 180.567033022 L 78.0872540725 180.970627596 L 78.0253558476 181.429825015 L 77.9697250521 181.944690593 L 77.9232598989 182.515175567 L 77.8888593942 183.14111691 L 77.869419324 183.822237283 L 77.8678282388 184.55814512 L 77.886963442 185.34833484 L 77.9296869847 186.192187196 L 77.9988416718 187.088969753 L 78.0972470837 188.037837502 L 78.2276956173 189.037833597 L 78.3929485505 190.087890231" stroke="blue" stroke-width="0.5" fill="gray"/>
  <path d="M80.7481134042 38.7083887866 A 71.7973017322 71.7973017322, 0, 0, 0, 76.2141388736 40.5864225286" stroke="blue" stroke-width="0.5" fill="gray"/>
  <path d="M65.9188849658 26.9604625433 A 88.5416666667 88.5416666667, 0, 0, 0, 62.5059712664 28.7847029216" stroke="blue" stroke-width="0.5" fill="gray"/>
  <path d="M64.0353370464 164.239872597 L 60.2354524693 169.526308294 L 60.2191572567 169.548156978 L 60.1687483914 169.612538046 L 60.081993746 169.717636859 L 59.9567339735 169.861551237 L 59.7908855549 170.04229406 L 59.5824437611 170.257795957 L 59.329485524 170.505908107 L 59.0301722149 170.784405125 L 58.6827523268 171.090988034 L 58.2855640581 171.42328734 L 57.837037794 171.778866173 L 57.3356984848 172.155223525 L 56.7801679163 172.549797557 L 56.169166872 172.959968984 L 55.5015171826 173.383064531 L 54.7761436629 173.816360454 L 53.9920759318 174.257086127 L 53.1484501149 174.702427694 L 52.2445104273 175.149531766 L 51.2796106343 175.595509182" stroke="blue" stroke-width="0.5" fill="gray"/>
  <path d="M68.1158063202 166.966354999 L 64.6859294527 172.500021943 L 64.6719798086 172.523437886 L 64.6317900952 172.594647173 L 64.5678910184 172.715017588 L 64.4828663093 172.885816177 L 64.3793491574 173.10820742 L 64.2600185867 173.383251532 L 64.1275957753 173.71190288 L 63.9848403254 174.095008514 L 63.8345464854 174.533306838 L 63.6795393285 175.027426389 L 63.5226708929 175.577884752 L 63.3668162862 176.185087602 L 63.2148697585 176.849327869 L 63.0697407487 177.570785038 L 62.9343499074 178.349524577 L 62.8116251013 179.185497496 L 62.7044974026 180.078540038 L 62.6158970675 181.028373503 L 62.5487495088 182.0346042 L 62.5059712664 183.096723538" stroke="blue" stroke-width="0.5" fill="gray"/>
  <path d="M68.1158063202 44.9150714611 A 71.7973017322 71.7973017322, 0, 0, 0, 64.0353370464 47.6415538625" stroke="blue" stroke-width="0.5" fill="gray"/>
  <path d="M51.2796106343 36.2859172776 A 88.5416666667 88.5416666667, 0, 0, 0, 48.2881667575 38.7409318213" stroke="blue" stroke-width="0.5" fill="gray"/>
  <path d="M53.4669353251 154.944337263 L 48.7087320223 159.387874875 L 48.6884874508 159.406124704 L 48.6264870544 159.459434426 L 48.520895614 159.545588803 L 48.3699663704 159.662300938 L 48.1720435074 159.807215416 L 47.9255645297 159.977911528 L 47.6290625348 160.171906569 L 47.2811683741 160.386659215 L 46.8806127032 160.619572962 L 46.4262279172 160.867999642 L 45.9169499705 161.129242994 L 45.3518200786 161.400562298 L 44.7299862992 161.679176063 L 44.0507049928 161.962265771 L 43.3133421585 162.246979663 L 42.5173746465 162.530436572 L 41.6623912434 162.809729799 L 40.7480936304 163.08193102 L 39.7742972131 163.344094228 L 38.7409318213 163.593259702" stroke="blue" stroke-width="0.5" fill="gray"/>
  <path d="M56.9370891963 158.414491135 L 52.4935515851 163.172694437 L 52.4753017556 163.192939009 L 52.4219920335 163.254939405 L 52.3358376565 163.360530846 L 52.2191255217 163.511460089 L 52.0742110436 163.709382952 L 51.9035149318 163.95586193 L 51.7095198905 164.252363925 L 51.4947672449 164.600258086 L 51.2618534977 165.000813756 L 51.0134268176 165.455198543 L 50.7521834656 165.964476489 L 50.480864162 166.529606381 L 50.2022503967 167.15144016 L 49.9191606886 167.830721467 L 49.634446797 168.568084301 L 49.3509898877 169.364051813 L 49.0716966605 170.219035216 L 48.7994954395 171.133332829 L 48.5373322317 172.107129247 L 48.2881667575 173.140494638" stroke="blue" stroke-width="0.5" fill="gray"/>
  <path d="M56.9370891963 53.4669353251 A 71.7973017322 71.7973017322, 0, 0, 0, 53.4669353251 56.9370891963" stroke="blue" stroke-width="0.5" fill="gray"/>
  <path d="M38.7409318213 48.2881667575 A 88.5416666667 88.5416666667, 0, 0, 0, 36.2859172776 51.2796106343" stroke="blue" stroke-width="0.5" fill="gray"/>
  <path d="M44.9150714611 143.76562014 L 39.381404517 147.195497007 L 39.3579885742 147.209446651 L 39.2867792872 147.249636365 L 39.1664088716 147.313535441 L 38.9956102831 147.39856015 L 38.7732190402 147.502077302 L 38.4981749275 147.621407873 L 38.1695235802 147.753830684 L 37.7864179455 147.896586134 L 37.3481196216 148.046879974 L 36.8540000708 148.201887131 L 36.3035417074 148.358755567 L 35.6963388575 148.514610174 L 35.0320985907 148.666556701 L 34.3106414218 148.811685711 L 33.5319018828 148.947076552 L 32.6959289636 149.069801358 L 31.8028864212 149.176929057 L 30.8530529567 149.265529392 L 29.8468222599 149.332676951 L 28.7847029216 149.375455193" stroke="blue" stroke-width="0.5" fill="gray"/>
  <path d="M47.6415538625 147.846089413 L 42.3551181659 151.64597399 L 42.3332694818 151.662269203 L 42.2688884138 151.712678068 L 42.1637896009 151.799432714 L 42.0198752223 151.924692486 L 41.8391324002 152.090540905 L 41.6236305032 152.298982699 L 41.3755183525 152.551940936 L 41.097021335 152.851254245 L 40.7904384253 153.198674133 L 40.4581391199 153.595862402 L 40.1025602871 154.044388666 L 39.7262029352 154.545727975 L 39.331628903 155.101258543 L 38.9214574755 155.712259588 L 38.4983619287 156.379909277 L 38.0650660062 157.105282797 L 37.6243403326 157.889350528 L 37.178998766 158.732976345 L 36.7318946941 159.636916032 L 36.2859172776 160.601815825" stroke="blue" stroke-width="0.5" fill="gray"/>
  <path d="M47.6415538625 64.0353370464 A 71.7973017322 71.7973017322, 0, 0, 0, 44.9150714611 68.1158063202" stroke="blue" stroke-width="0.5" fill="gray"/>
  <path d="M28.7847029216 62.5059712664 A 88.5416666667 88.5416666667, 0, 0, 0, 26.9604625433 65.9188849658" stroke="blue" stroke-width="0.5" fill="gray"/>
  <path d="M38.7083887866 131.133313056 L 32.6119139187 133.417720935 L 32.5862264661 133.426834317 L 32.5085448214 133.452359553 L 32.3780211981 133.491547724 L 32.1939169588 133.541617555 L 31.9556037067 133.599759275 L 31.6625642501 133.663138498 L 31.3143934373 133.728900145 L 30.9107988633 133.794172387 L 30.4516014451 133.856070612 L 29.9367358668 133.911701408 L 29.3662508929 133.958166561 L 28.7403095501 133.992567066 L 28.0591891767 134.012007136 L 27.3232813397 134.013598221 L 26.5330916198 133.994463018 L 25.6892392639 133.951739475 L 24.7924567064 133.882584788 L 23.8435889576 133.784179376 L 22.8435928626 133.653730842 L 21.7935362286 133.488477909" stroke="blue" stroke-width="0.5" fill="gray"/>
  <path d="M40.5864225286 135.667287586 L 34.6602435058 138.362826004 L 34.6356355998 138.374545642 L 34.5626573142 138.411425792 L 34.4426529538 138.47600971 L 34.2770668803 138.570786348 L 34.0674415595 138.698186861 L 33.8154154943 138.860581169 L 33.5227210451 139.060274606 L 33.1911821398 139.299504621 L 32.8227118769 139.580437574 L 32.4193100223 139.905165603 L 31.9830604037 140.275703572 L 31.5161282055 140.69398611 L 31.0207571652 141.161864739 L 30.4992666762 141.681105094 L 29.9540487988 142.253384236 L 29.3875651824 142.880288065 L 28.8023439029 143.563308841 L 28.2009762174 144.303842795 L 27.5861132401 145.103187858 L 26.9604625433 145.962541494" stroke="blue" stroke-width="0.5" fill="gray"/>
  <path d="M40.5864225286 76.2141388736 A 71.7973017322 71.7973017322, 0, 0, 0, 38.7083887866 80.7481134042" stroke="blue" stroke-width="0.5" fill="gray"/>
  <path d="M21.7935362286 78.3929485505 A 88.5416666667 88.5416666667, 0, 0, 0, 20.6701745502 82.0961757131" stroke="blue" stroke-width="0.5" fill="gray"/>
  <path d="M35.0854066362 117.532868488 L 28.6604079547 118.584018866 L 28.6334361466 118.587945763 L 28.5522674064 118.597825602 L 28.416606525 118.610796888 L 28.2262716575 118.623987686 L 27.9811946409 118.63451962 L 27.6814211823 118.639511867 L 27.3271109132 118.636085166 L 26.918537313 118.621365825 L 26.4560874998 118.592489721 L 25.9402618893 118.546606295 L 25.3716737225 118.480882536 L 24.7510484616 118.392506946 L 24.0792230557 118.278693488 L 23.3571450761 118.136685504 L 22.585871723 117.963759611 L 21.7665687033 117.757229562 L 20.9005089812 117.514450065 L 19.9890714037 117.232820571 L 19.0337391997 116.909789009 L 18.0360983574 116.542855477" stroke="blue" stroke-width="0.5" fill="gray"/>
  <path d="M36.0428199353 122.346110177 L 29.7046373227 123.833714407 L 29.6782158628 123.840408091 L 29.5994448742 123.862342241 L 29.4691466666 123.902273508 L 29.288252278 123.9629248 L 29.057800242 124.046981476 L 28.7789352291 124.157087577 L 28.4529065648 124.295842106 L 28.081066626 124.465795351 L 27.6648691155 124.669445275 L 27.2058672186 124.909233948 L 26.7057116425 125.187544055 L 26.1661485406 125.506695458 L 25.5890173234 125.868941835 L 24.97624836 126.276467385 L 24.3298605692 126.731383612 L 23.6519589066 127.235726189 L 22.9447317467 127.791451904 L 22.2104481652 128.40043569 L 21.451455122 129.064467745 L 20.6701745502 129.785250747" stroke="blue" stroke-width="0.5" fill="gray"/>
  <path d="M36.0428199353 89.5353162824 A 71.7973017322 71.7973017322, 0, 0, 0, 35.0854066362 94.3485579713" stroke="blue" stroke-width="0.5" fill="gray"/>
  <path d="M18.0360983574 95.3385709823 A 88.5416666667 88.5416666667, 0, 0, 0, 17.6567855383 99.1897986649" stroke="blue" stroke-width="0.5" fill="gray"/>
  <path d="M34.1853541821 103.486943896 L 27.678740783 103.264441651 L 27.6515211311 103.263031156 L 27.5699845644 103.256885921 L 27.4343997966 103.243141842 L 27.245148763 103.218946692 L 27.0027261543 103.181464104 L 26.7077388196 103.127877525 L 26.3609050391 103.055394163 L 25.963053667 102.961248895 L 25.5151231458 102.842708154 L 25.0181603921 102.697073781 L 24.4733195568 102.521686837 L 23.8818606585 102.313931377 L 23.2451480936 102.071238178 L 22.5646490232 101.791088412 L 21.8419316394 101.471017275 L 21.0786633113 101.108617553 L 20.2766086143 100.701543126 L 19.4376272429 100.247512413 L 18.5636718108 99.7443117444 L 17.6567855383 99.1897986649" stroke="blue" stroke-width="0.5" fill="gray"/>
  <path d="M34.1853541821 108.394482564 L 27.678740783 108.616984808 L 27.6515211311 108.618395304 L 27.5699845644 108.624540539 L 27.4343997966 108.638284618 L 27.245148763 108.662479768 L 27.0027261543 108.699962356 L 26.7077388196 108.753548934 L 26.3609050391 108.826032296 L 25.963053667 108.920177565 L 25.5151231458 109.038718306 L 25.0181603921 109.184352679 L 24.4733195568 109.359739623 L 23.8818606585 109.567495082 L 23.2451480936 109.810188282 L 22.5646490232 110.090338048 L 21.8419316394 110.410409184 L 21.0786633113 110.772808907 L 20.2766086143 111.179883334 L 19.4376272429 111.633914047 L 18.5636718108 112.137114715 L 17.6567855383 112.691627795" stroke="blue" stroke-width="0.5" fill="gray"/>
  <path d="M34.1853541821 103.486943896 A 71.7973017322 71.7973017322, 0, 0, 0, 34.1853541821 108.394482564" stroke="blue" stroke-width="0.5" fill="gray"/>
  <path d="M17.6567855383 112.691627795 A 88.5416666667 88.5416666667, 0, 0, 0, 18.0360983574 116.542855477" stroke="blue" stroke-width="0.5" fill="gray"/>
  <path d="M36.0428199353 89.5353162824 L 29.7046373227 88.0477120531 L 29.6782158628 88.0410183691 L 29.5994448742 88.0190842183 L 29.4691466666 87.9791529516 L 29.288252278 87.9185016599 L 29.057800242 87.834444984 L 28.7789352291 87.7243388826 L 28.4529065648 87.5855843542 L 28.081066626 87.4156311086 L 27.6648691155 87.2119811851 L 27.2058672186 86.9721925118 L 26.7057116425 86.6938824048 L 26.1661485406 86.3747310014 L 25.5890173234 86.0124846245 L 24.97624836 85.604959075 L 24.3298605692 85.1500428482 L 23.6519589066 84.6457002707 L 22.9447317467 84.0899745554 L 22.2104481652 83.4809907694 L 21.451455122 82.8169587142 L 20.6701745502 82.0961757131" stroke="blue" stroke-width="0.5" fill="gray"/>
  <path d="M35.0854066362 94.3485579713 L 28.6604079547 93.2974075941 L 28.6334361466 93.2934806967 L 28.5522674064 93.2836008575 L 28.416606525 93.2706295721 L 28.2262716575 93.2574387736 L 27.9811946409 93.24690684 L 27.6814211823 93.2419145931 L 27.3271109132 93.2453412937 L 26.918537313 93.2600606347 L 26.4560874998 93.288936739 L 25.9402618893 93.334820165 L 25.3716737225 93.400543924 L 24.7510484616 93.4889195135 L 24.0792230557 93.6027329717 L 23.3571450761 93.7447409557 L 22.585871723 93.9176668483 L 21.7665687033 94.1241968979 L 20.9005089812 94.366976395 L 19.9890714037 94.6486058892 L 19.0337391997 94.971637451 L 18.0360983574 95.3385709823" stroke="blue" stroke-width="0.5" fill="gray"/>
  <path d="M35.0854066362 117.532868488 A 71.7973017322 71.7973017322, 0, 0, 0, 36.0428199353 122.346110177" stroke="blue" stroke-width="0.5" fill="gray"/>
  <path d="M20.6701745502 129.785250747 A 88.5416666667 88.5416666667, 0, 0, 0, 21.7935362286 133.488477909" stroke="blue" stroke-width="0.5" fill="gray"/>
  <path d="M40.5864225286 76.2141388736 L 34.6602435058 73.5186004555 L 34.6356355998 73.5068808177 L 34.5626573142 73.4700006678 L 34.4426529538 73.40541675 L 34.2770668803 73.3106401113 L 34.0674415595 73.183239599 L 33.8154154943 73.0208452902 L 33.5227210451 72.8211518541 L 33.1911821398 72.5819218391 L 32.8227118769 72.3009888854 L 32.4193100223 71.9762608563 L 31.9830604037 71.6057228876 L 31.5161282055 71.1874403496 L 31.0207571652 70.7195617203 L 30.4992666762 70.2003213655 L 29.9540487988 69.6280422242 L 29.3875651824 69.0011383943 L 28.8023439029 68.3181176184 L 28.2009762174 67.5775836647 L 27.5861132401 66.7782386021 L 26.9604625433 65.9188849658" stroke="blue" stroke-width="0.5" fill="gray"/>
  <path d="M38.7083887866 80.7481134042 L 32.6119139187 78.463705525 L 32.5862264661 78.4545921432 L 32.5085448214 78.4290669066 L 32.3780211981 78.3898787358 L 32.1939169588 78.3398089042 L 31.9556037067 78.2816671846 L 31.6625642501 78.2182879618 L 31.3143934373 78.1525263148 L 30.9107988633 78.0872540725 L 30.4516014451 78.0253558476 L 29.9367358668 77.9697250521 L 29.3662508929 77.9232598989 L 28.7403095501 77.8888593942 L 28.0591891767 77.869419324 L 27.3232813397 77.8678282388 L 26.5330916198 77.886963442 L 25.6892392639 77.9296869847 L 24.7924567064 77.9988416718 L 23.8435889576 78.0972470837 L 22.8435928626 78.2276956173 L 21.7935362286 78.3929485505" stroke="blue" stroke-width="0.5" fill="gray"/>
  <path d="M38.7083887866 131.133313056 A 71.7973017322 71.7973017322, 0, 0, 0, 40.5864225286 135.667287586" stroke="blue" stroke-width="0.5" fill="gray"/>
  <path d="M26.9604625433 145.962541494 A 88.5416666667 88.5416666667, 0, 0, 0, 28.7847029216 149.375455193" stroke="blue" stroke-width="0.5" fill="gray"/>
  <path d="M47.6415538625 64.0353370464 L 42.3551181659 60.2354524693 L 42.3332694818 60.2191572567 L 42.2688884138 60.1687483914 L 42.1637896009 60.081993746 L 42.0198752223 59.9567339735 L 41.8391324002 59.7908855549 L 41.6236305032 59.5824437611 L 41.3755183525 59.329485524 L 41.097021335 59.0301722149 L 40.7904384253 58.6827523268 L 40.4581391199 58.2855640581 L 40.1025602871 57.837037794 L 39.7262029352 57.3356984848 L 39.331628903 56.7801679163 L 38.9214574755 56.169166872 L 38.4983619287 55.5015171826 L 38.0650660062 54.7761436629 L 37.6243403326 53.9920759318 L 37.178998766 53.1484501149 L 36.7318946941 52.2445104273 L 36.2859172776 51.2796106343" stroke="blue" stroke-width="0.5" fill="gray"/>
  <path d="M44.9150714611 68.1158063202 L 39.381404517 64.6859294527 L 39.3579885742 64.6719798086 L 39.2867792872 64.6317900952 L 39.1664088716 64.5678910184 L 38.9956102831 64.4828663093 L 38.7732190402 64.3793491574 L 38.4981749275 64.2600185867 L 38.1695235802 64.1275957753 L 37.7864179455 63.9848403254 L 37.3481196216 63.8345464854 L 36.8540000708 63.6795393285 L 36.3035417074 63.5226708929 L 35.6963388575 63.3668162862 L 35.0320985907 63.2148697585 L 34.3106414218 63.0697407487 L 33.5319018828 62.9343499074 L 32.6959289636 62.8116251013 L 31.8028864212 62.7044974026 L 30.8530529567 62.6158970675 L 29.8468222599 62.5487495088 L 28.7847029216 62.5059712664" stroke="blue" stroke-width="0.5" fill="gray"/>
  <path d="M44.9150714611 143.76562014 A 71.7973017322 71.7973017322, 0, 0, 0, 47.6415538625 147.846089413" stroke="blue" stroke-width="0.5" fill="gray"/>
  <path d="M36.2859172776 160.601815825 A 88.5416666667 88.5416666667, 0, 0, 0, 38.7409318213 163.593259702" stroke="blue" stroke-width="0.5" fill="gray"/>
  <path d="M56.9370891963 53.4669353251 L 52.4935515851 48.7087320223 L 52.4753017556 48.6884874508 L 52.4219920335 48.6264870544 L 52.3358376565 48.520895614 L 52.2191255217 48.3699663704 L 52.0742110436 48.1720435074 L 51.9035149318 47.9255645297 L 51.7095198905 47.6290625348 L 51.4947672449 47.2811683741 L 51.2618534977 46.8806127032 L 51.0134268176 46.4262279172 L 50.7521834656 45.9169499705 L 50.480864162 45.3518200786 L 50.2022503967 44.7299862992 L 49.9191606886 44.0507049928 L 49.634446797 43.3133421585 L 49.3509898877 42.5173746465 L 49.0716966605 41.6623912434 L 48.7994954395 40.7480936304 L 48.5373322317 39.7742972131 L 48.2881667575 38.7409318213" stroke="blue" stroke-width="0.5" fill="gray"/>
  <path d="M53.4669353251 56.9370891963 L 48.7087320223 52.4935515851 L 48.6884874508 52.4753017556 L 48.6264870544 52.4219920335 L 48.520895614 52.3358376565 L 48.3699663704 52.2191255217 L 48.1720435074 52.0742110436 L 47.9255645297 51.9035149318 L 47.6290625348 51.7095198905 L 47.2811683741 51.4947672449 L 46.8806127032 51.2618534977 L 46.4262279172 51.0134268176 L 45.9169499705 50.7521834656 L 45.3518200786 50.480864162 L 44.7299862992 50.2022503967 L 44.0507049928 49.9191606886 L 43.3133421585 49.634446797 L 42.5173746465 49.3509898877 L 41.6623912434 49.0716966605 L 40.7480936304 48.7994954395 L 39.7742972131 48.5373322317 L 38.7409318213 48.2881667575" stroke="blue" stroke-width="0.5" fill="gray"/>
  <path d="M53.4669353251 154.944337263 A 71.7973017322 71.7973017322, 0, 0, 0, 56.9370891963 158.414491135" stroke="blue" stroke-width="0.5" fill="gray"/>
  <path d="M48.2881667575 173.140494638 A 88.5416666667 88.5416666667, 0, 0, 0, 51.2796106343 175.595509182" stroke="blue" stroke-width="0.5" fill="gray"/>
  <path d="M68.1158063202 44.9150714611 L 64.6859294527 39.381404517 L 64.6719798086 39.3579885742 L 64.6317900952 39.2867792872 L 64.5678910184 39.1664088716 L 64.4828663093 38.9956102831 L 64.3793491574 38.7732190402 L 64.2600185867 38.4981749275 L 64.1275957753 38.1695235802 L 63.9848403254 37.7864179455 L 63.8345464854 37.3481196216 L 63.6795393285 36.8540000708 L 63.5226708929 36.3035417074 L 63.3668162862 35.6963388575 L 63.2148697585 35.0320985907 L 63.0697407487 34.3106414218 L 62.9343499074 33.5319018828 L 62.8116251013 32.6959289636 L 62.7044974026 31.8028864212 L 62.6158970675 30.8530529567 L 62.5487495088 29.8468222599 L 62.5059712664 28.7847029216" stroke="blue" stroke-width="0.5" fill="gray"/>
  <path d="M64.0353370464 47.6415538625 L 60.2354524693 42.3551181659 L 60.2191572567 42.3332694818 L 60.1687483914 42.2688884138 L 60.081993746 42.1637896009 L 59.9567339735 42.0198752223 L 59.7908855549 41.8391324002 L 59.5824437611 41.6236305032 L 59.329485524 41.3755183525 L 59.0301722149 41.097021335 L 58.6827523268 40.7904384253 L 58.2855640581 40.4581391199 L 57.837037794 40.1025602871 L 57.3356984848 39.7262029352 L 56.7801679163 39.331628903 L 56.169166872 38.9214574755 L 55.5015171826 38.4983619287 L 54.7761436629 38.0650660062 L 53.9920759318 37.6243403326 L 53.1484501149 37.178998766 L 52.2445104273 36.7318946941 L 51.2796106343 36.2859172776" stroke="blue" stroke-width="0.5" fill="gray"/>
  <path d="M64.0353370464 164.239872597 A 71.7973017322 71.7973017322, 0, 0, 0, 68.1158063202 166.966354999" stroke="blue" stroke-width="0.5" fill="gray"/>
  <path d="M62.5059712664 183.096723538 A 88.5416666667 88.5416666667, 0, 0, 0, 65.9188849658 184.920963916" stroke="blue" stroke-width="0.5" fill="gray"/>
  <path d="M80.7481134042 38.7083887866 L 78.463705525 32.6119139187 L 78.4545921432 32.5862264661 L 78.4290669066 32.5085448214 L 78.3898787358 32.3780211981 L 78.3398089042 32.1939169588 L 78.2816671846 31.9556037067 L 78.2182879618 31.6625642501 L 78.1525263148 31.3143934373 L 78.0872540725 30.9107988633 L 78.0253558476 30.4516014451 L 77.9697250521 29.9367358668 L 77.9232598989 29.3662508929 L 77.8888593942 28.7403095501 L 77.869419324 28.0591891767 L 77.8678282388 27.3232813397 L 77.886963442 26.5330916198 L 77.9296869847 25.6892392639 L 77.9988416718 24.7924567064 L 78.0972470837 23.8435889576 L 78.2276956173 22.8435928626 L 78.3929485505 21.7935362286" stroke="blue" stroke-width="0.5" fill="gray"/>
  <path d="M76.2141388736 40.5864225286 L 73.5186004555 34.6602435058 L 73.5068808177 34.6356355998 L 73.4700006678 34.5626573142 L 73.40541675 34.4426529538 L 73.3106401113 34.2770668803 L 73.183239599 34.0674415595 L 73.0208452902 33.8154154943 L 72.8211518541 33.5227210451 L 72.5819218391 33.1911821398 L 72.3009888854 32.8227118769 L 71.9762608563 32.4193100223 L 71.6057228876 31.9830604037 L 71.1874403496 31.5161282055 L 70.7195617203 31.0207571652 L 70.2003213655 30.4992666762 L 69.6280422242 29.9540487988 L 69.0011383943 29.3875651824 L 68.3181176184 28.8023439029 L 67.5775836647 28.2009762174 L 66.7782386021 27.5861132401 L 65.9188849658 26.9604625433" stroke="blue" stroke-width="0.5" fill="gray"/>
  <path d="M76.2141388736 171.295003931 A 71.7973017322 71.7973017322, 0, 0, 0, 80.7481134042 173.173037673" stroke="blue" stroke-width="0.5" fill="gray"/>
  <path d="M78.3929485505 190.087890231 A 88.5416666667 88.5416666667, 0, 0, 0, 82.0961757131 191.21125191" stroke="blue" stroke-width="0.5" fill="gray"/>
  <path d="M94.3485579713 35.0854066362 L 93.2974075941 28.6604079547 L 93.2934806967 28.6334361466 L 93.2836008575 28.5522674064 L 93.2706295721 28.416606525 L 93.2574387736 28.2262716575 L 93.24690684 27.9811946409 L 93.2419145931 27.6814211823 L 93.2453412937 27.3271109132 L 93.2600606347 26.918537313 L 93.288936739 26.4560874998 L 93.334820165 25.9402618893 L 93.400543924 25.3716737225 L 93.4889195135 24.7510484616 L 93.6027329717 24.0792230557 L 93.7447409557 23.3571450761 L 93.9176668483 22.585871723 L 94.1241968979 21.7665687033 L 94.366976395 20.9005089812 L 94.6486058892 19.9890714037 L 94.971637451 19.0337391997 L 95.3385709823 18.0360983574" stroke="blue" stroke-width="0.5" fill="gray"/>
  <path d="M89.5353162824 36.0428199353 L 88.0477120531 29.7046373227 L 88.0410183691 29.6782158628 L 88.0190842183 29.5994448742 L 87.9791529516 29.4691466666 L 87.9185016599 29.288252278 L 87.834444984 29.057800242 L 87.7243388826 28.7789352291 L 87.5855843542 28.4529065648 L 87.4156311086 28.081066626 L 87.2119811851 27.6648691155 L 86.9721925118 27.2058672186 L 86.6938824048 26.7057116425 L 86.3747310014 26.1661485406 L 86.0124846245 25.5890173234 L 85.604959075 24.97624836 L 85.1500428482 24.3298605692 L 84.6457002707 23.6519589066 L 84.0899745554 22.9447317467 L 83.4809907694 22.2104481652 L 82.8169587142 21.451455122 L 82.0961757131 20.6701745502" stroke="blue" stroke-width="0.5" fill="gray"/>
  <path d="M89.5353162824 175.838606524 A 71.7973017322 71.7973017322, 0, 0, 0, 94.3485579713 176.796019824" stroke="blue" stroke-width="0.5" fill="gray"/>
  <path d="M95.3385709823 193.845328102 A 88.5416666667 88.5416666667, 0, 0, 0, 99.1897986649 194.224640921" stroke="blue" stroke-width="0.5" fill="gray"/>
  <path d="M108.394482564 34.1853541821 L 108.616984808 27.678740783 L 108.618395304 27.6515211311 L 108.624540539 27.5699845644 L 108.638284618 27.4343997966 L 108.662479768 27.245148763 L 108.699962356 27.0027261543 L 108.753548934 26.7077388196 L 108.826032296 26.3609050391 L 108.920177565 25.963053667 L 109.038718306 25.5151231458 L 109.184352679 25.0181603921 L 109.359739623 24.4733195568 L 109.567495082 23.8818606585 L 109.810188282 23.2451480936 L 110.090338048 22.5646490232 L 110.410409184 21.8419316394 L 110.772808907 21.0786633113 L 111.179883334 20.2766086143 L 111.633914047 19.4376272429 L 112.137114715 18.5636718108 L 112.691627795 17.6567855383" stroke="blue" stroke-width="0.5" fill="gray"/>
  <path d="M103.486943896 34.1853541821 L 103.264441651 27.678740783 L 103.263031156 27.6515211311 L 103.256885921 27.5699845644 L 103.243141842 27.4343997966 L 103.218946692 27.245148763 L 103.181464104 27.0027261543 L 103.127877525 26.7077388196 L 103.055394163 26.3609050391 L 102.961248895 25.963053667 L 102.842708154 25.5151231458 L 102.697073781 25.0181603921 L 102.521686837 24.4733195568 L 102.313931377 23.8818606585 L 102.071238178 23.2451480936 L 101.791088412 22.5646490232 L 101.471017275 21.8419316394 L 101.108617553 21.0786633113 L 100.701543126 20.2766086143 L 100.247512413 19.4376272429 L 99.7443117444 18.5636718108 L 99.1897986649 17.6567855383" stroke="blue" stroke-width="0.5" fill="gray"/>
  <path d="M103.486943896 177.696072278 A 71.7973017322 71.7973017322, 0, 0, 0, 108.394482564 177.696072278" stroke="blue" stroke-width="0.5" fill="gray"/>
  <path d="M112.691627795 194.224640921 A 88.5416666667 88.5416666667, 0, 0, 0, 116.542855477 193.845328102" stroke="blue" stroke-width="0.5" fill="gray"/>
  <path d="M122.346110177 36.0428199353 L 123.833714407 29.7046373227 L 123.840408091 29.6782158628 L 123.862342241 29.5994448742 L 123.902273508 29.4691466666 L 123.9629248 29.288252278 L 124.046981476 29.057800242 L 124.157087577 28.7789352291 L 124.295842106 28.4529065648 L 124.465795351 28.081066626 L 124.669445275 27.6648691155 L 124.909233948 27.2058672186 L 125.187544055 26.7057116425 L 125.506695458 26.1661485406 L 125.868941835 25.5890173234 L 126.276467385 24.97624836 L 126.731383612 24.3298605692 L 127.235726189 23.6519589066 L 127.791451904 22.9447317467 L 128.40043569 22.2104481652 L 129.064467745 21.451455122 L 129.785250747 20.6701745502" stroke="blue" stroke-width="0.5" fill="gray"/>
  <path d="M117.532868488 35.0854066362 L 118.584018866 28.6604079547 L 118.587945763 28.6334361466 L 118.597825602 28.5522674064 L 118.610796888 28.416606525 L 118.623987686 28.2262716575 L 118.63451962 27.9811946409 L 118.639511867 27.6814211823 L 118.636085166 27.3271109132 L 118.621365825 26.918537313 L 118.592489721 26.4560874998 L 118.546606295 25.9402618893 L 118.480882536 25.3716737225 L 118.392506946 24.7510484616 L 118.278693488 24.0792230557 L 118.136685504 23.3571450761 L 117.963759611 22.585871723 L 117.757229562 21.7665687033 L 117.514450065 20.9005089812 L 117.232820571 19.9890714037 L 116.909789009 19.0337391997 L 116.542855477 18.0360983574" stroke="blue" stroke-width="0.5" fill="gray"/>
  <path d="M117.532868488 176.796019824 A 71.7973017322 71.7973017322, 0, 0, 0, 122.346110177 175.838606524" stroke="blue" stroke-width="0.5" fill="gray"/>
  <path d="M129.785250747 191.21125191 A 88.5416666667 88.5416666667, 0, 0, 0, 133.488477909 190.087890231" stroke="blue" stroke-width="0.5" fill="gray"/>
  <path d="M135.667287586 40.5864225286 L 138.362826004 34.6602435058 L 138.374545642 34.6356355998 L 138.411425792 34.5626573142 L 138.47600971 34.4426529538 L 138.570786348 34.2770668803 L 138.698186861 34.0674415595 L 138.860581169 33.8154154943 L 139.060274606 33.5227210451 L 139.299504621 33.1911821398 L 139.580437574 32.8227118769 L 139.905165603 32.4193100223 L 140.275703572 31.9830604037 L 140.69398611 31.5161282055 L 141.161864739 31.0207571652 L 141.681105094 30.4992666762 L 142.253384236 29.9540487988 L 142.880288065 29.3875651824 L 143.563308841 28.8023439029 L 144.303842795 28.2009762174 L 145.103187858 27.5861132401 L 145.962541494 26.9604625433" stroke="blue" stroke-width="0.5" fill="gray"/>
  <path d="M131.133313056 38.7083887866 L 133.417720935 32.6119139187 L 133.426834317 32.5862264661 L 133.452359553 32.5085448214 L 133.491547724 32.3780211981 L 133.541617555 32.1939169588 L 133.599759275 31.9556037067 L 133.663138498 31.6625642501 L 133.728900145 31.3143934373 L 133.794172387 30.9107988633 L 133.856070612 30.4516014451 L 133.911701408 29.9367358668 L 133.958166561 29.3662508929 L 133.992567066 28.7403095501 L 134.012007136 28.0591891767 L 134.013598221 27.3232813397 L 133.994463018 26.5330916198 L 133.951739475 25.6892392639 L 133.882584788 24.7924567064 L 133.784179376 23.8435889576 L 133.653730842 22.8435928626 L 133.488477909 21.7935362286" stroke="blue" stroke-width="0.5" fill="gray"/>
  <path d="M131.133313056 173.173037673 A 71.7973017322 71.7973017322, 0, 0, 0, 135.667287586 171.295003931" stroke="blue" stroke-width="0.5" fill="gray"/>
  <path d="M145.962541494 184.920963916 A 88.5416666667 88.5416666667, 0, 0, 0, 149.375455193 183.096723538" stroke="blue" stroke-width="0.5" fill="gray"/>
  <path d="M147.846089413 47.6415538625 L 151.64597399 42.3551181659 L 151.662269203 42.3332694818 L 151.712678068 42.2688884138 L 151.799432714 42.1637896009 L 151.924692486 42.0198752223 L 152.090540905 41.8391324002 L 152.298982699 41.6236305032 L 152.551940936 41.3755183525 L 152.851254245 41.097021335 L 153.198674133 40.7904384253 L 153.595862402 40.4581391199 L 154.044388666 40.1025602871 L 154.545727975 39.7262029352 L 155.101258543 39.331628903 L 155.712259588 38.9214574755 L 156.379909277 38.4983619287 L 157.105282797 38.0650660062 L 157.889350528 37.6243403326 L 158.732976345 37.178998766 L 159.636916032 36.7318946941 L 160.601815825 36.2859172776" stroke="blue" stroke-width="0.5" fill="gray"/>
  <path d="M143.76562014 44.9150714611 L 147.195497007 39.381404517 L 147.209446651 39.3579885742 L 147.249636365 39.2867792872 L 147.313535441 39.1664088716 L 147.39856015 38.9956102831 L 147.502077302 38.7732190402 L 147.621407873 38.4981749275 L 147.753830684 38.1695235802 L 147.896586134 37.7864179455 L 148.046879974 37.3481196216 L 148.201887131 36.8540000708 L 148.358755567 36.3035417074 L 148.514610174 35.6963388575 L 148.666556701 35.0320985907 L 148.811685711 34.3106414218 L 148.947076552 33.5319018828 L 149.069801358 32.6959289636 L 149.176929057 31.8028864212 L 149.265529392 30.8530529567 L 149.332676951 29.8468222599 L 149.375455193 28.7847029216" stroke="blue" stroke-width="0.5" fill="gray"/>
  <path d="M143.76562014 166.966354999 A 71.7973017322 71.7973017322, 0, 0, 0, 147.846089413 164.239872597" stroke="blue" stroke-width="0.5" fill="gray"/>
  <path d="M160.601815825 175.595509182 A 88.5416666667 88.5416666667, 0, 0, 0, 163.593259702 173.140494638" stroke="blue" stroke-width="0.5" fill="gray"/>
  <path d="M158.414491135 56.9370891963 L 163.172694437 52.4935515851 L 163.192939009 52.4753017556 L 163.254939405 52.4219920335 L 163.360530846 52.3358376565 L 163.511460089 52.2191255217 L 163.709382952 52.0742110436 L 163.95586193 51.9035149318 L 164.252363925 51.7095198905 L 164.600258086 51.4947672449 L 165.000813756 51.2618534977 L 165.455198543 51.0134268176 L 165.964476489 50.7521834656 L 166.529606381 50.480864162 L 167.15144016 50.2022503967 L 167.830721467 49.9191606886 L 168.568084301 49.634446797 L 169.364051813 49.3509898877 L 170.219035216 49.0716966605 L 171.133332829 48.7994954395 L 172.107129247 48.5373322317 L 173.140494638 48.2881667575" stroke="blue" stroke-width="0.5" fill="gray"/>
  <path d="M154.944337263 53.4669353251 L 159.387874875 48.7087320223 L 159.406124704 48.6884874508 L 159.459434426 48.6264870544 L 159.545588803 48.520895614 L 159.662300938 48.3699663704 L 159.807215416 48.1720435074 L 159.977911528 47.9255645297 L 160.171906569 47.6290625348 L 160.386659215 47.2811683741 L 160.619572962 46.8806127032 L 160.867999642 46.4262279172 L 161.129242994 45.9169499705 L 161.400562298 45.3518200786 L 161.679176063 44.7299862992 L 161.962265771 44.0507049928 L 162.246979663 43.3133421585 L 162.530436572 42.5173746465 L 162.809729799 41.6623912434 L 163.08193102 40.7480936304 L 163.344094228 39.7742972131 L 163.593259702 38.7409318213" stroke="blue" stroke-width="0.5" fill="gray"/>
  <path d="M154.944337263 158.414491135 A 71.7973017322 71.7973017322, 0, 0, 0, 158.414491135 154.944337263" stroke="blue" stroke-width="0.5" fill="gray"/>
  <path d="M173.140494638 163.593259702 A 88.5416666667 88.5416666667, 0, 0, 0, 175.595509182 160.601815825" stroke="blue" stroke-width="0.5" fill="gray"/>
  <path d="M166.966354999 68.1158063202 L 172.500021943 64.6859294527 L 172.523437886 64.6719798086 L 172.594647173 64.6317900952 L 172.715017588 64.5678910184 L 172.885816177 64.4828663093 L 173.10820742 64.3793491574 L 173.383251532 64.2600185867 L 173.71190288 64.1275957753 L 174.095008514 63.9848403254 L 174.533306838 63.8345464854 L 175.027426389 63.6795393285 L 175.577884752 63.5226708929 L 176.185087602 63.3668162862 L 176.849327869 63.2148697585 L 177.570785038 63.0697407487 L 178.349524577 62.9343499074 L 179.185497496 62.8116251013 L 180.078540038 62.7044974026 L 181.028373503 62.6158970675 L 182.0346042 62.5487495088 L 183.096723538 62.5059712664" stroke="blue" stroke-width="0.5" fill="gray"/>
  <path d="M164.239872597 64.0353370464 L 169.526308294 60.2354524693 L 169.548156978 60.2191572567 L 169.612538046 60.1687483914 L 169.717636859 60.081993746 L 169.861551237 59.9567339735 L 170.04229406 59.7908855549 L 170.257795957 59.5824437611 L 170.505908107 59.329485524 L 170.784405125 59.0301722149 L 171.090988034 58.6827523268 L 171.42328734 58.2855640581 L 171.778866173 57.837037794 L 172.155223525 57.3356984848 L 172.549797557 56.7801679163 L 172.959968984 56.169166872 L 173.383064531 55.5015171826 L 173.816360454 54.7761436629 L 174.257086127 53.9920759318 L 174.702427694 53.1484501149 L 175.149531766 52.2445104273 L 175.595509182 51.2796106343" stroke="blue" stroke-width="0.5" fill="gray"/>
  <path d="M164.239872597 147.846089413 A 71.7973017322 71.7973017322, 0, 0, 0, 166.966354999 143.76562014" stroke="blue" stroke-width="0.5" fill="gray"/>
  <path d="M183.096723538 149.375455193 A 88.5416666667 88.5416666667, 0, 0, 0, 184.920963916 145.962541494" stroke="blue" stroke-width="0.5" fill="gray"/>
  <path d="M173.173037673 80.7481134042 L 179.269512541 78.463705525 L 179.295199994 78.4545921432 L 179.372881638 78.4290669066 L 179.503405262 78.3898787358 L 179.687509501 78.3398089042 L 179.925822753 78.2816671846 L 180.21886221 78.2182879618 L 180.567033022 78.1525263148 L 180.970627596 78.0872540725 L 181.429825015 78.0253558476 L 181.944690593 77.9697250521 L 182.515175567 77.9232598989 L 183.14111691 77.8888593942 L 183.822237283 77.869419324 L 184.55814512 77.8678282388 L 185.34833484 77.886963442 L 186.192187196 77.9296869847 L 187.088969753 77.9988416718 L 188.037837502 78.0972470837 L 189.037833597 78.2276956173 L 190.087890231 78.3929485505" stroke="blue" stroke-width="0.5" fill="gray"/>
  <path d="M171.295003931 76.2141388736 L 177.221182954 73.5186004555 L 177.24579086 73.5068808177 L 177.318769146 73.4700006678 L 177.438773506 73.40541675 L 177.604359579 73.3106401113 L 177.8139849 73.183239599 L 178.066010965 73.0208452902 L 178.358705415 72.8211518541 L 178.69024432 72.5819218391 L 179.058714583 72.3009888854 L 179.462116437 71.9762608563 L 179.898366056 71.6057228876 L 180.365298254 71.1874403496 L 180.860669294 70.7195617203 L 181.382159783 70.2003213655 L 181.927377661 69.6280422242 L 182.493861277 69.0011383943 L 183.079082557 68.3181176184 L 183.680450242 67.5775836647 L 184.29531322 66.7782386021 L 184.920963916 65.9188849658" stroke="blue" stroke-width="0.5" fill="gray"/>
  <path d="M171.295003931 135.667287586 A 71.7973017322 71.7973017322, 0, 0, 0, 173.173037673 131.133313056" stroke="blue" stroke-width="0.5" fill="gray"/>
  <path d="M190.087890231 133.488477909 A 88.5416666667 88.5416666667, 0, 0, 0, 191.21125191 129.785250747" stroke="blue" stroke-width="0.5" fill="gray"/>
  <path d="M176.796019824 94.3485579713 L 183.221018505 93.2974075941 L 183.247990313 93.2934806967 L 183.329159053 93.2836008575 L 183.464819935 93.2706295721 L 183.655154802 93.2574387736 L 183.900231819 93.24690684 L 184.200005277 93.2419145931 L 184.554315547 93.2453412937 L 184.962889147 93.2600606347 L 185.42533896 93.288936739 L 185.94116457 93.334820165 L 186.509752737 93.400543924 L 187.130377998 93.4889195135 L 187.802203404 93.6027329717 L 188.524281384 93.7447409557 L 189.295554737 93.9176668483 L 190.114857756 94.1241968979 L 190.980917478 94.366976395 L 191.892355056 94.6486058892 L 192.84768726 94.971637451 L 193.845328102 95.3385709823" stroke="blue" stroke-width="0.5" fill="gray"/>
  <path d="M175.838606524 89.5353162824 L 182.176789137 88.0477120531 L 182.203210597 88.0410183691 L 182.281981586 88.0190842183 L 182.412279793 87.9791529516 L 182.593174182 87.9185016599 L 182.823626218 87.834444984 L 183.102491231 87.7243388826 L 183.428519895 87.5855843542 L 183.800359834 87.4156311086 L 184.216557344 87.2119811851 L 184.675559241 86.9721925118 L 185.175714817 86.6938824048 L 185.715277919 86.3747310014 L 186.292409136 86.0124846245 L 186.9051781 85.604959075 L 187.551565891 85.1500428482 L 188.229467553 84.6457002707 L 188.936694713 84.0899745554 L 189.670978295 83.4809907694 L 190.429971338 82.8169587142 L 191.21125191 82.0961757131" stroke="blue" stroke-width="0.5" fill="gray"/>
  <path d="M175.838606524 122.346110177 A 71.7973017322 71.7973017322, 0, 0, 0, 176.796019824 117.532868488" stroke="blue" stroke-width="0.5" fill="gray"/>
  <path d="M193.845328102 116.542855477 A 88.5416666667 88.5416666667, 0, 0, 0, 194.224640921 112.691627795" stroke="blue" stroke-width="0.5" fill="gray"/>
</svg>
